#N canvas 683 144 772 524 10;
#N canvas 369 368 597 558 voice 0;
#X obj 50 16 inlet;
#X obj 60 484 outlet~;
#X obj 60 439 *~;
#X obj 281 328 sig~ 0;
#X text 92 14 x \, y \, z \, note;
#X obj 50 44 unpack 0 0 0 0;
#X obj 49 82 * 32;
#X obj 49 106 + 44;
#X floatatom 49 130 5 0 0 0 - - -;
#X text 85 131 pitch direct from Soundplane x position;
#X floatatom 249 97 5 0 0 0 - - -;
#X floatatom 156 100 5 0 0 0 - - -;
#X floatatom 199 100 5 0 0 0 - - -;
#X obj 60 327 phasor~;
#X obj 60 279 mtof;
#X obj 60 303 sig~;
#X obj 115 327 *~ 3;
#X obj 115 360 +~;
#X obj 152 252 * 96;
#X obj 152 274 + 36;
#X obj 152 300 mtof;
#X obj 152 327 sig~ 0;
#X obj 60 393 bob~ 1000 0.6;
#X obj 281 355 lop~ 250;
#X obj 348 422 snapshot~ 100;
#X floatatom 352 489 5 0 0 0 - - -;
#X connect 0 0 5 0;
#X connect 2 0 1 0;
#X connect 3 0 23 0;
#X connect 5 0 6 0;
#X connect 5 1 11 0;
#X connect 5 1 18 0;
#X connect 5 2 12 0;
#X connect 5 2 3 0;
#X connect 5 3 10 0;
#X connect 5 3 14 0;
#X connect 6 0 7 0;
#X connect 7 0 8 0;
#X connect 13 0 22 0;
#X connect 14 0 15 0;
#X connect 15 0 13 0;
#X connect 15 0 16 0;
#X connect 16 0 17 0;
#X connect 17 0 22 1;
#X connect 18 0 19 0;
#X connect 19 0 20 0;
#X connect 20 0 21 0;
#X connect 21 0 17 1;
#X connect 22 0 2 0;
#X connect 23 0 2 1;
#X connect 23 0 24 0;
#X connect 24 0 25 0;
#X restore 35 221 pd voice;
#X obj 46 286 dac~;
#X text 560 378 number of touches;
#X msg 33 20 listen 3123;
#X obj 34 77 oscparse;
#X obj 33 49 netreceive -u -b;
#X obj 34 107 list trim;
#X obj 35 134 route t3d;
#X obj 35 162 route tch1 tch2 tch3 tch4;
#X obj 33 -7 loadbang;
#X floatatom 319 290 40 0 0 0 - - -;
#X obj 377 226 >> 16;
#X obj 377 249 & 65535;
#X obj 434 224 & 65535;
#X floatatom 524 318 5 0 0 0 - - -;
#X floatatom 524 347 5 0 0 0 - - -;
#X text 566 290 frame number;
#X text 561 318 instrument model;
#X text 563 348 instrumetn serial number;
#X obj 320 196 unpack 0 0;
#N canvas 369 368 597 558 voice 0;
#X obj 50 16 inlet;
#X obj 60 484 outlet~;
#X obj 60 439 *~;
#X obj 281 328 sig~ 0;
#X text 92 14 x \, y \, z \, note;
#X obj 50 44 unpack 0 0 0 0;
#X obj 49 82 * 32;
#X obj 49 106 + 44;
#X floatatom 49 130 5 0 0 0 - - -;
#X text 85 131 pitch direct from Soundplane x position;
#X floatatom 249 97 5 0 0 0 - - -;
#X floatatom 156 100 5 0 0 0 - - -;
#X floatatom 199 100 5 0 0 0 - - -;
#X obj 60 327 phasor~;
#X obj 60 279 mtof;
#X obj 60 303 sig~;
#X obj 115 327 *~ 3;
#X obj 115 360 +~;
#X obj 152 252 * 96;
#X obj 152 274 + 36;
#X obj 152 300 mtof;
#X obj 152 327 sig~ 0;
#X obj 60 393 bob~ 1000 0.6;
#X obj 281 355 lop~ 250;
#X obj 348 422 snapshot~ 100;
#X floatatom 352 489 5 0 0 0 - - -;
#X connect 0 0 5 0;
#X connect 2 0 1 0;
#X connect 3 0 23 0;
#X connect 5 0 6 0;
#X connect 5 1 11 0;
#X connect 5 1 18 0;
#X connect 5 2 12 0;
#X connect 5 2 3 0;
#X connect 5 3 10 0;
#X connect 5 3 14 0;
#X connect 6 0 7 0;
#X connect 7 0 8 0;
#X connect 13 0 22 0;
#X connect 14 0 15 0;
#X connect 15 0 13 0;
#X connect 15 0 16 0;
#X connect 16 0 17 0;
#X connect 17 0 22 1;
#X connect 18 0 19 0;
#X connect 19 0 20 0;
#X connect 20 0 21 0;
#X connect 21 0 17 1;
#X connect 22 0 2 0;
#X connect 23 0 2 1;
#X connect 23 0 24 0;
#X connect 24 0 25 0;
#X restore 90 221 pd voice;
#N canvas 369 368 597 558 voice 0;
#X obj 50 16 inlet;
#X obj 60 484 outlet~;
#X obj 60 439 *~;
#X obj 281 328 sig~ 0;
#X text 92 14 x \, y \, z \, note;
#X obj 50 44 unpack 0 0 0 0;
#X obj 49 82 * 32;
#X obj 49 106 + 44;
#X floatatom 49 130 5 0 0 0 - - -;
#X text 85 131 pitch direct from Soundplane x position;
#X floatatom 249 97 5 0 0 0 - - -;
#X floatatom 156 100 5 0 0 0 - - -;
#X floatatom 199 100 5 0 0 0 - - -;
#X obj 60 327 phasor~;
#X obj 60 279 mtof;
#X obj 60 303 sig~;
#X obj 115 327 *~ 3;
#X obj 115 360 +~;
#X obj 152 252 * 96;
#X obj 152 274 + 36;
#X obj 152 300 mtof;
#X obj 152 327 sig~ 0;
#X obj 60 393 bob~ 1000 0.6;
#X obj 281 355 lop~ 250;
#X obj 348 422 snapshot~ 100;
#X floatatom 352 489 5 0 0 0 - - -;
#X connect 0 0 5 0;
#X connect 2 0 1 0;
#X connect 3 0 23 0;
#X connect 5 0 6 0;
#X connect 5 1 11 0;
#X connect 5 1 18 0;
#X connect 5 2 12 0;
#X connect 5 2 3 0;
#X connect 5 3 10 0;
#X connect 5 3 14 0;
#X connect 6 0 7 0;
#X connect 7 0 8 0;
#X connect 13 0 22 0;
#X connect 14 0 15 0;
#X connect 15 0 13 0;
#X connect 15 0 16 0;
#X connect 16 0 17 0;
#X connect 17 0 22 1;
#X connect 18 0 19 0;
#X connect 19 0 20 0;
#X connect 20 0 21 0;
#X connect 21 0 17 1;
#X connect 22 0 2 0;
#X connect 23 0 2 1;
#X connect 23 0 24 0;
#X connect 24 0 25 0;
#X restore 148 221 pd voice;
#N canvas 369 368 597 558 voice 0;
#X obj 50 16 inlet;
#X obj 60 484 outlet~;
#X obj 60 439 *~;
#X obj 281 328 sig~ 0;
#X text 92 14 x \, y \, z \, note;
#X obj 50 44 unpack 0 0 0 0;
#X obj 49 82 * 32;
#X obj 49 106 + 44;
#X floatatom 49 130 5 0 0 0 - - -;
#X text 85 131 pitch direct from Soundplane x position;
#X floatatom 249 97 5 0 0 0 - - -;
#X floatatom 156 100 5 0 0 0 - - -;
#X floatatom 199 100 5 0 0 0 - - -;
#X obj 60 327 phasor~;
#X obj 60 279 mtof;
#X obj 60 303 sig~;
#X obj 115 327 *~ 3;
#X obj 115 360 +~;
#X obj 152 252 * 96;
#X obj 152 274 + 36;
#X obj 152 300 mtof;
#X obj 152 327 sig~ 0;
#X obj 60 393 bob~ 1000 0.6;
#X obj 281 355 lop~ 250;
#X obj 348 422 snapshot~ 100;
#X floatatom 352 489 5 0 0 0 - - -;
#X connect 0 0 5 0;
#X connect 2 0 1 0;
#X connect 3 0 23 0;
#X connect 5 0 6 0;
#X connect 5 1 11 0;
#X connect 5 1 18 0;
#X connect 5 2 12 0;
#X connect 5 2 3 0;
#X connect 5 3 10 0;
#X connect 5 3 14 0;
#X connect 6 0 7 0;
#X connect 7 0 8 0;
#X connect 13 0 22 0;
#X connect 14 0 15 0;
#X connect 15 0 13 0;
#X connect 15 0 16 0;
#X connect 16 0 17 0;
#X connect 17 0 22 1;
#X connect 18 0 19 0;
#X connect 19 0 20 0;
#X connect 20 0 21 0;
#X connect 21 0 17 1;
#X connect 22 0 2 0;
#X connect 23 0 2 1;
#X connect 23 0 24 0;
#X connect 24 0 25 0;
#X restore 203 221 pd voice;
#X obj 441 377 float;
#X floatatom 524 376 5 0 0 0 - - -;
#X obj 384 356 bng 15 250 50 0 empty empty empty 17 7 0 10 -262144
-1 -1;
#X obj 492 375 + 1;
#X msg 404 355 0;
#X obj 441 353 bng 15 250 50 0 empty empty empty 17 7 0 10 -262144
-1 -1;
#X obj 319 161 route frm dr;
#X connect 0 0 1 0;
#X connect 0 0 1 1;
#X connect 3 0 5 0;
#X connect 4 0 6 0;
#X connect 5 0 4 0;
#X connect 6 0 7 0;
#X connect 7 0 8 0;
#X connect 7 0 29 0;
#X connect 8 0 0 0;
#X connect 8 1 20 0;
#X connect 8 2 21 0;
#X connect 8 3 22 0;
#X connect 9 0 3 0;
#X connect 11 0 12 0;
#X connect 12 0 14 0;
#X connect 13 0 15 0;
#X connect 19 0 10 0;
#X connect 19 0 25 0;
#X connect 19 1 11 0;
#X connect 19 1 13 0;
#X connect 20 0 1 0;
#X connect 20 0 1 1;
#X connect 21 0 1 0;
#X connect 21 0 1 1;
#X connect 22 0 1 0;
#X connect 22 0 1 1;
#X connect 23 0 24 0;
#X connect 23 0 26 0;
#X connect 25 0 27 0;
#X connect 26 0 23 1;
#X connect 27 0 23 0;
#X connect 28 0 23 0;
#X connect 29 0 19 0;
#X connect 29 2 28 0;
