#N canvas 283 73 1086 813 10;
#N canvas 364 272 1035 707 voice 0;
#X obj 50 16 inlet;
#X obj 489 561 outlet~;
#X obj 60 439 *~;
#X text 92 14 x \, y \, z \, note;
#X obj 48 48 unpack 0 0 0 0;
#X text 85 131 pitch direct from Soundplane x position;
#X floatatom 249 97 5 0 0 0 - - -;
#X floatatom 156 100 5 0 0 0 - - -;
#X floatatom 199 100 5 0 0 0 - - -;
#X obj 60 327 phasor~;
#X obj 60 279 mtof;
#X obj 60 303 sig~;
#X obj 115 327 *~ 3;
#X obj 115 360 +~;
#X obj 152 252 * 96;
#X obj 152 274 + 36;
#X obj 152 300 mtof;
#X obj 152 327 sig~ 0;
#X obj 60 393 bob~ 1000 0.6;
#X obj 242 354 lop~ 250;
#X obj 242 327 sig~;
#X obj 241 304 clip 0 1.6;
#X msg 494 331 pitch \$1;
#X obj 494 287 * 128;
#X obj 494 265 - 63;
#X obj 494 309 + 8252;
#X obj 493 454 brds~;
#X msg 605 385 timbre \$1;
#X msg 673 385 colour \$1;
#X obj 489 533 *~;
#X obj 651 47 inlet;
#X msg 652 72 shape \$1;
#X obj 542 560 outlet;
#X obj 382 56 vsl 15 128 0 1 0 0 empty empty empty 0 -9 0 10 -262144
-1 -1 4077 1;
#X obj 412 57 vsl 15 128 0 1 0 0 empty empty empty 0 -9 0 10 -262144
-1 -1 10178 1;
#X obj 439 55 vsl 15 128 0 1 0 0 empty empty empty 0 -9 0 10 -262144
-1 -1 0 1;
#X connect 0 0 4 0;
#X connect 4 0 28 0;
#X connect 4 0 33 0;
#X connect 4 1 7 0;
#X connect 4 1 14 0;
#X connect 4 1 27 0;
#X connect 4 1 34 0;
#X connect 4 2 8 0;
#X connect 4 2 21 0;
#X connect 4 2 35 0;
#X connect 4 3 6 0;
#X connect 4 3 10 0;
#X connect 4 3 24 0;
#X connect 9 0 18 0;
#X connect 10 0 11 0;
#X connect 11 0 9 0;
#X connect 11 0 12 0;
#X connect 12 0 13 0;
#X connect 13 0 18 1;
#X connect 14 0 15 0;
#X connect 15 0 16 0;
#X connect 16 0 17 0;
#X connect 17 0 13 1;
#X connect 18 0 2 0;
#X connect 19 0 29 1;
#X connect 20 0 19 0;
#X connect 21 0 20 0;
#X connect 22 0 26 0;
#X connect 23 0 25 0;
#X connect 24 0 23 0;
#X connect 25 0 22 0;
#X connect 26 0 29 0;
#X connect 26 1 32 0;
#X connect 27 0 26 0;
#X connect 28 0 26 0;
#X connect 29 0 1 0;
#X connect 30 0 31 0;
#X connect 31 0 26 0;
#X restore 35 221 pd voice;
#X obj 32 498 dac~;
#X msg 33 20 listen 3123;
#X obj 34 77 oscparse;
#X obj 33 49 netreceive -u -b;
#X obj 34 107 list trim;
#X obj 35 134 route t3d;
#X obj 35 162 route tch1 tch2 tch3 tch4;
#X obj 33 -7 loadbang;
#X obj 31 456 *~ 1;
#X obj 95 456 rngs_reverb~;
#X obj 257 413 vsl 15 128 0 1 0 1 empty empty amount 0 -9 0 10 -262144
-1 -1 12700 1;
#X obj 326 414 vsl 15 128 0 1 0 1 empty empty gain 0 -9 0 10 -262144
-1 -1 4600 1;
#X obj 390 415 vsl 15 128 0 1 0 1 empty empty time 0 -9 0 10 -262144
-1 -1 11397 1;
#X obj 564 414 vsl 15 128 0 1 0 1 empty empty lp 0 -9 0 10 -262144
-1 -1 2600 1;
#X obj 467 415 vsl 15 128 0 1 0 1 empty empty diffusion 0 -9 0 10 -262144
-1 -1 3497 1;
#X msg 254 556 amount \$1;
#X msg 326 556 gain \$1;
#X msg 390 557 time \$1;
#X msg 467 559 diffusion \$1;
#X msg 564 559 lp \$1;
#X obj 243 77 vsl 15 128 0 1 0 0 empty empty shape 0 -9 0 10 -262144
-1 -1 8500 1;
#X symbolatom 63 253 10 0 0 0 - - -;
#N canvas 503 334 1035 707 voice 0;
#X obj 50 16 inlet;
#X obj 489 561 outlet~;
#X obj 60 439 *~;
#X text 92 14 x \, y \, z \, note;
#X obj 48 48 unpack 0 0 0 0;
#X obj 49 82 * 32;
#X obj 49 106 + 44;
#X floatatom 49 130 5 0 0 0 - - -;
#X text 85 131 pitch direct from Soundplane x position;
#X floatatom 249 97 5 0 0 0 - - -;
#X floatatom 156 100 5 0 0 0 - - -;
#X floatatom 199 100 5 0 0 0 - - -;
#X obj 60 327 phasor~;
#X obj 60 279 mtof;
#X obj 60 303 sig~;
#X obj 115 327 *~ 3;
#X obj 115 360 +~;
#X obj 152 252 * 96;
#X obj 152 274 + 36;
#X obj 152 300 mtof;
#X obj 152 327 sig~ 0;
#X obj 60 393 bob~ 1000 0.6;
#X obj 242 354 lop~ 250;
#X obj 242 327 sig~;
#X obj 241 304 clip 0 1.6;
#X msg 494 331 pitch \$1;
#X obj 494 287 * 128;
#X obj 494 265 - 63;
#X obj 494 309 + 8252;
#X obj 493 454 brds~;
#X msg 605 385 timbre \$1;
#X msg 673 385 colour \$1;
#X obj 489 533 *~;
#X obj 651 47 inlet;
#X msg 652 72 shape \$1;
#X obj 542 560 outlet;
#X connect 0 0 4 0;
#X connect 4 0 5 0;
#X connect 4 0 31 0;
#X connect 4 1 10 0;
#X connect 4 1 17 0;
#X connect 4 1 30 0;
#X connect 4 2 11 0;
#X connect 4 2 24 0;
#X connect 4 3 9 0;
#X connect 4 3 13 0;
#X connect 4 3 27 0;
#X connect 5 0 6 0;
#X connect 6 0 7 0;
#X connect 12 0 21 0;
#X connect 13 0 14 0;
#X connect 14 0 12 0;
#X connect 14 0 15 0;
#X connect 15 0 16 0;
#X connect 16 0 21 1;
#X connect 17 0 18 0;
#X connect 18 0 19 0;
#X connect 19 0 20 0;
#X connect 20 0 16 1;
#X connect 21 0 2 0;
#X connect 22 0 32 1;
#X connect 23 0 22 0;
#X connect 24 0 23 0;
#X connect 25 0 29 0;
#X connect 26 0 28 0;
#X connect 27 0 26 0;
#X connect 28 0 25 0;
#X connect 29 0 32 0;
#X connect 29 1 35 0;
#X connect 30 0 29 0;
#X connect 31 0 29 0;
#X connect 32 0 1 0;
#X connect 33 0 34 0;
#X connect 34 0 29 0;
#X restore 99 221 pd voice;
#N canvas 503 334 1035 707 voice 0;
#X obj 50 16 inlet;
#X obj 489 561 outlet~;
#X obj 60 439 *~;
#X text 92 14 x \, y \, z \, note;
#X obj 48 48 unpack 0 0 0 0;
#X obj 49 82 * 32;
#X obj 49 106 + 44;
#X floatatom 49 130 5 0 0 0 - - -;
#X text 85 131 pitch direct from Soundplane x position;
#X floatatom 249 97 5 0 0 0 - - -;
#X floatatom 156 100 5 0 0 0 - - -;
#X floatatom 199 100 5 0 0 0 - - -;
#X obj 60 327 phasor~;
#X obj 60 279 mtof;
#X obj 60 303 sig~;
#X obj 115 327 *~ 3;
#X obj 115 360 +~;
#X obj 152 252 * 96;
#X obj 152 274 + 36;
#X obj 152 300 mtof;
#X obj 152 327 sig~ 0;
#X obj 60 393 bob~ 1000 0.6;
#X obj 242 354 lop~ 250;
#X obj 242 327 sig~;
#X obj 241 304 clip 0 1.6;
#X msg 494 331 pitch \$1;
#X obj 494 287 * 128;
#X obj 494 265 - 63;
#X obj 494 309 + 8252;
#X obj 493 454 brds~;
#X msg 605 385 timbre \$1;
#X msg 673 385 colour \$1;
#X obj 489 533 *~;
#X obj 651 47 inlet;
#X msg 652 72 shape \$1;
#X obj 542 560 outlet;
#X connect 0 0 4 0;
#X connect 4 0 5 0;
#X connect 4 0 31 0;
#X connect 4 1 10 0;
#X connect 4 1 17 0;
#X connect 4 1 30 0;
#X connect 4 2 11 0;
#X connect 4 2 24 0;
#X connect 4 3 9 0;
#X connect 4 3 13 0;
#X connect 4 3 27 0;
#X connect 5 0 6 0;
#X connect 6 0 7 0;
#X connect 12 0 21 0;
#X connect 13 0 14 0;
#X connect 14 0 12 0;
#X connect 14 0 15 0;
#X connect 15 0 16 0;
#X connect 16 0 21 1;
#X connect 17 0 18 0;
#X connect 18 0 19 0;
#X connect 19 0 20 0;
#X connect 20 0 16 1;
#X connect 21 0 2 0;
#X connect 22 0 32 1;
#X connect 23 0 22 0;
#X connect 24 0 23 0;
#X connect 25 0 29 0;
#X connect 26 0 28 0;
#X connect 27 0 26 0;
#X connect 28 0 25 0;
#X connect 29 0 32 0;
#X connect 29 1 35 0;
#X connect 30 0 29 0;
#X connect 31 0 29 0;
#X connect 32 0 1 0;
#X connect 33 0 34 0;
#X connect 34 0 29 0;
#X restore 167 220 pd voice;
#N canvas 503 334 1035 707 voice 0;
#X obj 50 16 inlet;
#X obj 489 561 outlet~;
#X obj 60 439 *~;
#X text 92 14 x \, y \, z \, note;
#X obj 48 48 unpack 0 0 0 0;
#X obj 49 82 * 32;
#X obj 49 106 + 44;
#X floatatom 49 130 5 0 0 0 - - -;
#X text 85 131 pitch direct from Soundplane x position;
#X floatatom 249 97 5 0 0 0 - - -;
#X floatatom 156 100 5 0 0 0 - - -;
#X floatatom 199 100 5 0 0 0 - - -;
#X obj 60 327 phasor~;
#X obj 60 279 mtof;
#X obj 60 303 sig~;
#X obj 115 327 *~ 3;
#X obj 115 360 +~;
#X obj 152 252 * 96;
#X obj 152 274 + 36;
#X obj 152 300 mtof;
#X obj 152 327 sig~ 0;
#X obj 60 393 bob~ 1000 0.6;
#X obj 242 354 lop~ 250;
#X obj 242 327 sig~;
#X obj 241 304 clip 0 1.6;
#X msg 494 331 pitch \$1;
#X obj 494 287 * 128;
#X obj 494 265 - 63;
#X obj 494 309 + 8252;
#X obj 493 454 brds~;
#X msg 605 385 timbre \$1;
#X msg 673 385 colour \$1;
#X obj 489 533 *~;
#X obj 651 47 inlet;
#X msg 652 72 shape \$1;
#X obj 542 560 outlet;
#X connect 0 0 4 0;
#X connect 4 0 5 0;
#X connect 4 0 31 0;
#X connect 4 1 10 0;
#X connect 4 1 17 0;
#X connect 4 1 30 0;
#X connect 4 2 11 0;
#X connect 4 2 24 0;
#X connect 4 3 9 0;
#X connect 4 3 13 0;
#X connect 4 3 27 0;
#X connect 5 0 6 0;
#X connect 6 0 7 0;
#X connect 12 0 21 0;
#X connect 13 0 14 0;
#X connect 14 0 12 0;
#X connect 14 0 15 0;
#X connect 15 0 16 0;
#X connect 16 0 21 1;
#X connect 17 0 18 0;
#X connect 18 0 19 0;
#X connect 19 0 20 0;
#X connect 20 0 16 1;
#X connect 21 0 2 0;
#X connect 22 0 32 1;
#X connect 23 0 22 0;
#X connect 24 0 23 0;
#X connect 25 0 29 0;
#X connect 26 0 28 0;
#X connect 27 0 26 0;
#X connect 28 0 25 0;
#X connect 29 0 32 0;
#X connect 29 1 35 0;
#X connect 30 0 29 0;
#X connect 31 0 29 0;
#X connect 32 0 1 0;
#X connect 33 0 34 0;
#X connect 34 0 29 0;
#X restore 228 220 pd voice;
#X obj 80 703 writesf~ 2;
#X msg 215 623 stop;
#X msg 164 623 start;
#X msg 70 623 open test.wav;
#X obj 411 646 loadbang;
#X msg 411 679 1;
#X msg 451 679 0.142;
#X msg 489 678 0.858;
#X msg 539 679 0.795;
#X msg 585 679 0.937;
#N canvas 988 435 912 619 spinfo 0;
#X obj 108 -53 inlet;
#X text 198 129 number of touches;
#X floatatom 108 105 15 0 0 0 - - -;
#X obj 166 41 >> 16;
#X obj 166 64 & 65535;
#X obj 223 39 & 65535;
#X floatatom 106 152 15 0 0 0 - - -;
#X floatatom 106 181 15 0 0 0 - - -;
#X text 203 105 frame number;
#X text 197 154 instrument model;
#X text 199 184 instrumetn serial number;
#X obj 109 11 unpack 0 0;
#X obj 129 343 float;
#X floatatom 108 125 15 0 0 0 - - -;
#X obj 72 322 bng 15 250 50 0 empty empty empty 17 7 0 10 -262144 -1
-1;
#X obj 180 341 + 1;
#X msg 92 321 0;
#X obj 129 319 bng 15 250 50 0 empty empty empty 17 7 0 10 -262144
-1 -1;
#X obj 108 -24 route frm dr;
#X connect 0 0 18 0;
#X connect 3 0 4 0;
#X connect 4 0 6 0;
#X connect 5 0 7 0;
#X connect 11 0 2 0;
#X connect 11 0 14 0;
#X connect 11 1 3 0;
#X connect 11 1 5 0;
#X connect 12 0 13 0;
#X connect 12 0 15 0;
#X connect 14 0 16 0;
#X connect 15 0 12 1;
#X connect 16 0 12 0;
#X connect 17 0 12 0;
#X connect 18 0 11 0;
#X connect 18 2 17 0;
#X coords 0 -1 1 1 250 100 2 100 100;
#X restore 327 32 pd spinfo;
#X connect 0 0 9 0;
#X connect 0 0 10 0;
#X connect 0 0 10 1;
#X connect 0 1 22 0;
#X connect 2 0 4 0;
#X connect 3 0 5 0;
#X connect 4 0 3 0;
#X connect 5 0 6 0;
#X connect 6 0 7 0;
#X connect 6 0 36 0;
#X connect 7 0 0 0;
#X connect 7 1 23 0;
#X connect 7 2 24 0;
#X connect 7 3 25 0;
#X connect 8 0 2 0;
#X connect 9 0 1 0;
#X connect 9 0 1 1;
#X connect 9 0 26 0;
#X connect 9 0 26 1;
#X connect 10 0 1 0;
#X connect 10 0 26 0;
#X connect 10 1 1 1;
#X connect 10 1 26 1;
#X connect 11 0 16 0;
#X connect 12 0 17 0;
#X connect 13 0 18 0;
#X connect 14 0 20 0;
#X connect 15 0 19 0;
#X connect 16 0 10 0;
#X connect 17 0 10 0;
#X connect 18 0 10 0;
#X connect 19 0 10 0;
#X connect 20 0 10 0;
#X connect 21 0 0 1;
#X connect 21 0 23 1;
#X connect 21 0 24 1;
#X connect 21 0 25 1;
#X connect 23 0 9 0;
#X connect 23 0 10 1;
#X connect 23 0 10 0;
#X connect 24 0 9 0;
#X connect 24 0 10 1;
#X connect 24 0 10 0;
#X connect 25 0 9 0;
#X connect 25 0 10 1;
#X connect 25 0 10 0;
#X connect 27 0 26 0;
#X connect 28 0 26 0;
#X connect 29 0 26 0;
#X connect 30 0 31 0;
#X connect 30 0 32 0;
#X connect 30 0 33 0;
#X connect 30 0 35 0;
#X connect 30 0 34 0;
#X connect 31 0 11 0;
#X connect 32 0 12 0;
#X connect 33 0 13 0;
#X connect 34 0 15 0;
#X connect 35 0 14 0;
