#N canvas 585 23 855 648 10;
#X declare -lib mrpeach;
#X obj 750 17 import mrpeach;
#X floatatom 18 307 40 0 0 0 - - -;
#X obj 76 243 >> 16;
#X obj 76 266 & 65535;
#X obj 133 241 & 65535;
#X floatatom 18 337 5 0 0 0 - - -;
#X floatatom 18 366 5 0 0 0 - - -;
#X text 56 307 frame number;
#X text 55 337 instrument model;
#X text 57 367 instrumetn serial number;
#X obj 19 115 routeOSC /t3d/frm /t3d/tch1 /t3d/tch2 /t3d/tch3 /t3d/tch4
/t3d/matrix;
#X obj 19 49 unpackOSC;
#N canvas 803 147 597 558 voice 0;
#X obj 50 16 inlet;
#X obj 60 484 outlet~;
#X obj 60 393 svf~ 1000 0.6;
#X obj 60 439 *~;
#X obj 281 328 sig~ 0;
#X obj 281 355 onepole~ 250;
#X text 92 14 x \, y \, z \, note;
#X obj 50 44 unpack 0 0 0 0;
#X obj 49 82 * 32;
#X obj 49 106 + 44;
#X floatatom 49 130 5 0 0 0 - - -;
#X text 85 131 pitch direct from Soundplane x position;
#X floatatom 249 97 5 0 0 0 - - -;
#X floatatom 156 100 5 0 0 0 - - -;
#X floatatom 199 100 5 0 0 0 - - -;
#X obj 60 327 phasor~;
#X obj 60 279 mtof;
#X obj 60 303 sig~;
#X obj 115 327 *~ 3;
#X obj 115 360 +~;
#X obj 152 252 * 96;
#X obj 152 274 + 36;
#X obj 152 300 mtof;
#X obj 152 327 sig~ 0;
#X connect 0 0 7 0;
#X connect 2 0 3 0;
#X connect 3 0 1 0;
#X connect 4 0 5 0;
#X connect 5 0 3 1;
#X connect 7 0 8 0;
#X connect 7 1 13 0;
#X connect 7 1 20 0;
#X connect 7 2 14 0;
#X connect 7 2 4 0;
#X connect 7 3 12 0;
#X connect 7 3 16 0;
#X connect 8 0 9 0;
#X connect 9 0 10 0;
#X connect 15 0 2 0;
#X connect 16 0 17 0;
#X connect 17 0 15 0;
#X connect 17 0 18 0;
#X connect 18 0 19 0;
#X connect 19 0 2 1;
#X connect 20 0 21 0;
#X connect 21 0 22 0;
#X connect 22 0 23 0;
#X connect 23 0 19 1;
#X restore 313 290 pd voice;
#X obj 19 22 udpreceive 3123;
#X obj 199 81 print sounndplane;
#X obj 198 58 gate;
#X obj 198 31 tgl 15 0 empty empty empty 17 7 0 10 -262144 -1 -1 0
1;
#X text 219 31 click to print raw messages;
#X obj 313 427 dac~;
#X obj 313 385 vols~;
#X floatatom 356 384 5 0 0 0 - - -;
#X obj 19 213 unpack 0 0;
#N canvas 803 147 597 558 voice 0;
#X obj 50 16 inlet;
#X obj 60 484 outlet~;
#X obj 60 393 svf~ 1000 0.6;
#X obj 60 439 *~;
#X obj 281 328 sig~ 0;
#X obj 281 355 onepole~ 250;
#X text 92 14 x \, y \, z \, note;
#X obj 50 44 unpack 0 0 0 0;
#X obj 49 82 * 32;
#X obj 49 106 + 44;
#X floatatom 49 130 5 0 0 0 - - -;
#X text 85 131 pitch direct from Soundplane x position;
#X floatatom 249 97 5 0 0 0 - - -;
#X floatatom 156 100 5 0 0 0 - - -;
#X floatatom 199 100 5 0 0 0 - - -;
#X obj 60 327 phasor~;
#X obj 60 279 mtof;
#X obj 60 303 sig~;
#X obj 115 327 *~ 3;
#X obj 115 360 +~;
#X obj 152 252 * 96;
#X obj 152 274 + 36;
#X obj 152 300 mtof;
#X obj 152 327 sig~ 0;
#X connect 0 0 7 0;
#X connect 2 0 3 0;
#X connect 3 0 1 0;
#X connect 4 0 5 0;
#X connect 5 0 3 1;
#X connect 7 0 8 0;
#X connect 7 1 13 0;
#X connect 7 1 20 0;
#X connect 7 2 14 0;
#X connect 7 2 4 0;
#X connect 7 3 12 0;
#X connect 7 3 16 0;
#X connect 8 0 9 0;
#X connect 9 0 10 0;
#X connect 15 0 2 0;
#X connect 16 0 17 0;
#X connect 17 0 15 0;
#X connect 17 0 18 0;
#X connect 18 0 19 0;
#X connect 19 0 2 1;
#X connect 20 0 21 0;
#X connect 21 0 22 0;
#X connect 22 0 23 0;
#X connect 23 0 19 1;
#X restore 372 289 pd voice;
#N canvas 803 147 597 558 voice 0;
#X obj 50 16 inlet;
#X obj 60 484 outlet~;
#X obj 60 393 svf~ 1000 0.6;
#X obj 60 439 *~;
#X obj 281 328 sig~ 0;
#X obj 281 355 onepole~ 250;
#X text 92 14 x \, y \, z \, note;
#X obj 50 44 unpack 0 0 0 0;
#X obj 49 82 * 32;
#X obj 49 106 + 44;
#X floatatom 49 130 5 0 0 0 - - -;
#X text 85 131 pitch direct from Soundplane x position;
#X floatatom 249 97 5 0 0 0 - - -;
#X floatatom 156 100 5 0 0 0 - - -;
#X floatatom 199 100 5 0 0 0 - - -;
#X obj 60 327 phasor~;
#X obj 60 279 mtof;
#X obj 60 303 sig~;
#X obj 115 327 *~ 3;
#X obj 115 360 +~;
#X obj 152 252 * 96;
#X obj 152 274 + 36;
#X obj 152 300 mtof;
#X obj 152 327 sig~ 0;
#X connect 0 0 7 0;
#X connect 2 0 3 0;
#X connect 3 0 1 0;
#X connect 4 0 5 0;
#X connect 5 0 3 1;
#X connect 7 0 8 0;
#X connect 7 1 13 0;
#X connect 7 1 20 0;
#X connect 7 2 14 0;
#X connect 7 2 4 0;
#X connect 7 3 12 0;
#X connect 7 3 16 0;
#X connect 8 0 9 0;
#X connect 9 0 10 0;
#X connect 15 0 2 0;
#X connect 16 0 17 0;
#X connect 17 0 15 0;
#X connect 17 0 18 0;
#X connect 18 0 19 0;
#X connect 19 0 2 1;
#X connect 20 0 21 0;
#X connect 21 0 22 0;
#X connect 22 0 23 0;
#X connect 23 0 19 1;
#X restore 431 289 pd voice;
#N canvas 803 147 597 558 voice 0;
#X obj 50 16 inlet;
#X obj 60 484 outlet~;
#X obj 60 393 svf~ 1000 0.6;
#X obj 60 439 *~;
#X obj 281 328 sig~ 0;
#X obj 281 355 onepole~ 250;
#X text 92 14 x \, y \, z \, note;
#X obj 50 44 unpack 0 0 0 0;
#X obj 49 82 * 32;
#X obj 49 106 + 44;
#X floatatom 49 130 5 0 0 0 - - -;
#X text 85 131 pitch direct from Soundplane x position;
#X floatatom 249 97 5 0 0 0 - - -;
#X floatatom 156 100 5 0 0 0 - - -;
#X floatatom 199 100 5 0 0 0 - - -;
#X obj 60 327 phasor~;
#X obj 60 279 mtof;
#X obj 60 303 sig~;
#X obj 115 327 *~ 3;
#X obj 115 360 +~;
#X obj 152 252 * 96;
#X obj 152 274 + 36;
#X obj 152 300 mtof;
#X obj 152 327 sig~ 0;
#X connect 0 0 7 0;
#X connect 2 0 3 0;
#X connect 3 0 1 0;
#X connect 4 0 5 0;
#X connect 5 0 3 1;
#X connect 7 0 8 0;
#X connect 7 1 13 0;
#X connect 7 1 20 0;
#X connect 7 2 14 0;
#X connect 7 2 4 0;
#X connect 7 3 12 0;
#X connect 7 3 16 0;
#X connect 8 0 9 0;
#X connect 9 0 10 0;
#X connect 15 0 2 0;
#X connect 16 0 17 0;
#X connect 17 0 15 0;
#X connect 17 0 18 0;
#X connect 18 0 19 0;
#X connect 19 0 2 1;
#X connect 20 0 21 0;
#X connect 21 0 22 0;
#X connect 22 0 23 0;
#X connect 23 0 19 1;
#X restore 491 289 pd voice;
#X obj 450 47 routeOSC /t3d;
#X obj 451 73 routeOSC /frm /dr;
#X obj 453 151 counter;
#X floatatom 453 177 5 0 0 0 - - -;
#X obj 451 95 bng 15 250 50 0 empty empty empty 17 7 0 10 -262144 -1
-1;
#X msg 452 125 jam 0;
#X obj 550 98 bng 15 250 50 0 empty empty empty 17 7 0 10 -262144 -1
-1;
#X text 496 179 number of touches;
#X connect 2 0 3 0;
#X connect 3 0 5 0;
#X connect 4 0 6 0;
#X connect 10 0 21 0;
#X connect 10 1 12 0;
#X connect 10 2 22 0;
#X connect 10 3 23 0;
#X connect 10 4 24 0;
#X connect 11 0 10 0;
#X connect 11 0 15 1;
#X connect 11 0 25 0;
#X connect 12 0 19 0;
#X connect 12 0 19 1;
#X connect 13 0 11 0;
#X connect 15 0 14 0;
#X connect 16 0 15 0;
#X connect 19 0 18 0;
#X connect 19 1 18 1;
#X connect 20 0 19 2;
#X connect 21 0 1 0;
#X connect 21 1 2 0;
#X connect 21 1 4 0;
#X connect 22 0 19 0;
#X connect 22 0 19 1;
#X connect 23 0 19 0;
#X connect 23 0 19 1;
#X connect 24 0 19 0;
#X connect 24 0 19 1;
#X connect 25 0 26 0;
#X connect 26 0 29 0;
#X connect 26 2 31 0;
#X connect 27 0 28 0;
#X connect 29 0 30 0;
#X connect 30 0 27 0;
#X connect 31 0 27 0;
